<svg xmlns="http://www.w3.org/2000/svg" viewBox="0 0 640 360">
  <rect width="640" height="360" fill="#10111a"/>
  <circle cx="320" cy="180" r="120" fill="#ff6b3510"/>
  <svg x="248" y="108" width="144" height="144" viewBox="0 0 24 24" fill="none" stroke="#ff6b35" stroke-width="1.5" stroke-linecap="round" stroke-linejoin="round">
    <path d="M6 9H4.5a2.5 2.5 0 0 1 0-5H6M18 9h1.5a2.5 2.5 0 0 0 0-5H18M4 22h16M10 14.66V17c0 .55-.47.98-.97 1.21C7.85 18.75 7 20.24 7 22M14 14.66V17c0 .55.47.98.97 1.21C16.15 18.75 17 20.24 17 22M18 2H6v7a6 6 0 0 0 12 0V2z"/>
  </svg>
  <circle cx="320" cy="180" r="80" fill="none" stroke="#ff6b3530" stroke-width="1"/>
</svg>
