<svg xmlns="http://www.w3.org/2000/svg" viewBox="0 0 640 360">
  <rect width="640" height="360" fill="#10111a"/>
  <circle cx="320" cy="180" r="120" fill="#a3a6bd10"/>
  <svg x="248" y="108" width="144" height="144" viewBox="0 0 24 24" fill="none" stroke="#a3a6bd" stroke-width="1.5" stroke-linecap="round" stroke-linejoin="round">
    <path d="M6 22V4a2 2 0 0 1 2-2h8a2 2 0 0 1 2 2v18Z"/>
    <path d="M6 12H4a2 2 0 0 0-2 2v6a2 2 0 0 0 2 2h2"/>
    <path d="M18 9h2a2 2 0 0 1 2 2v9a2 2 0 0 1-2 2h-2"/>
    <path d="M10 6h4"/>
    <path d="M10 10h4"/>
    <path d="M10 14h4"/>
    <path d="M10 18h4"/>
  </svg>
  <circle cx="320" cy="180" r="80" fill="none" stroke="#a3a6bd30" stroke-width="1"/>
</svg>
