<svg xmlns="http://www.w3.org/2000/svg" viewBox="0 0 640 360">
  <rect width="640" height="360" fill="#10111a"/>
  <circle cx="320" cy="180" r="120" fill="#E4001210"/>
  <svg x="248" y="108" width="144" height="144" viewBox="0 0 24 24" fill="#E40012" fill-rule="evenodd">
    <path d="M10.5 2H7.25A5.25 5.25 0 0 0 2 7.25v9.5A5.25 5.25 0 0 0 7.25 22h3.25V2ZM8.25 4.25v15.5h-1a3 3 0 0 1-3-3v-9.5a3 3 0 0 1 3-3h1Zm-.65 2.6a1.4 1.4 0 1 0 0 2.8 1.4 1.4 0 0 0 0-2.8ZM11.5 2v20h5.25A5.25 5.25 0 0 0 22 16.75v-9.5A5.25 5.25 0 0 0 16.75 2H11.5Zm4.75 8.25a1.75 1.75 0 1 1 0 3.5 1.75 1.75 0 0 1 0-3.5Z"/>
  </svg>
  <circle cx="320" cy="180" r="80" fill="none" stroke="#E4001230" stroke-width="1"/>
</svg>
