<svg xmlns="http://www.w3.org/2000/svg" xmlns:xlink="http://www.w3.org/1999/xlink" width="565" height="100" viewBox="0 0 565 100"><g transform="translate(0 6) scale(1.375)">
  
  <path d="M12 0H52L64 12V52L52 64H12L0 52V12Z" fill="#C8FF3D"/>
  <path d="M20 15Q32 3 44 15M26 20Q32 14 38 20" stroke="#09090C" stroke-width="4" stroke-linecap="square"/>
  <path d="M17 26H47L54 47L45 51L37 42H27L19 51L10 47Z" fill="#09090C"/>
  <path d="M20 31H24V35H28V39H24V43H20V39H16V35H20Z" fill="#C8FF3D"/>
  <circle cx="42" cy="33" r="3" fill="#C8FF3D"/>
  <circle cx="46" cy="41" r="3" fill="#C8FF3D"/>

</g><text x="108" y="70" font-family="Arial, sans-serif" font-size="58" font-weight="900" fill="#F6F6F8" >GAME</text><text x="291" y="70" font-family="Arial, sans-serif" font-size="58" font-weight="900" fill="#C8FF3D" >BEEPER</text></svg>