<svg xmlns="http://www.w3.org/2000/svg" viewBox="0 0 640 360">
  <defs>
    <radialGradient id="g" cx="50%" cy="50%" r="55%">
      <stop offset="0" stop-color="#FF8F4D" stop-opacity=".14"/>
      <stop offset="1" stop-color="#FF8F4D" stop-opacity="0"/>
    </radialGradient>
  </defs>
  <rect width="640" height="360" fill="#13151A"/>
  <rect width="640" height="360" fill="url(#g)"/>
  <g fill="none" stroke="#FFFFFF" stroke-opacity=".06">
    <circle cx="320" cy="180" r="72"/>
    <circle cx="320" cy="180" r="124"/>
    <circle cx="320" cy="180" r="176"/>
    <circle cx="320" cy="180" r="228"/>
  </g>
  <path d="M263.3 122.1A80 80 0 0 1 376.7 122.1" fill="none" stroke="#FF8F4D" stroke-opacity=".5" stroke-width="2" stroke-linecap="round"/>
  <g opacity=".85"><svg color="#FF8F4D" viewBox="0 0 24 24" x="290" y="150" width="60" height="60" fill="none" stroke="currentColor" stroke-width="2" stroke-linecap="round" stroke-linejoin="round"><path d="M6 9H4.5a2.5 2.5 0 0 1 0-5H6"/><path d="M18 9h1.5a2.5 2.5 0 0 0 0-5H18"/><path d="M4 22h16"/><path d="M10 14.66V17c0 .55-.47.98-.97 1.21C7.85 18.75 7 20.24 7 22"/><path d="M14 14.66V17c0 .55.47.98.97 1.21C16.15 18.75 17 20.24 17 22"/><path d="M18 2H6v7a6 6 0 0 0 12 0V2z"/></svg></g>
</svg>
