<svg xmlns="http://www.w3.org/2000/svg" viewBox="0 0 640 360">
  <defs>
    <radialGradient id="g" cx="50%" cy="50%" r="55%">
      <stop offset="0" stop-color="#FF5563" stop-opacity=".14"/>
      <stop offset="1" stop-color="#FF5563" stop-opacity="0"/>
    </radialGradient>
  </defs>
  <rect width="640" height="360" fill="#13151A"/>
  <rect width="640" height="360" fill="url(#g)"/>
  <g fill="none" stroke="#FFFFFF" stroke-opacity=".06">
    <circle cx="320" cy="180" r="72"/>
    <circle cx="320" cy="180" r="124"/>
    <circle cx="320" cy="180" r="176"/>
    <circle cx="320" cy="180" r="228"/>
  </g>
  <path d="M263.3 122.1A80 80 0 0 1 376.7 122.1" fill="none" stroke="#FF5563" stroke-opacity=".5" stroke-width="2" stroke-linecap="round"/>
  <g opacity=".85"><svg color="#FF5563" viewBox="0 0 24 24" x="290" y="150" width="60" height="60" fill="currentColor" fill-rule="evenodd"><path d="M10.5 2H7.25A5.25 5.25 0 0 0 2 7.25v9.5A5.25 5.25 0 0 0 7.25 22h3.25V2ZM8.25 4.25v15.5h-1a3 3 0 0 1-3-3v-9.5a3 3 0 0 1 3-3h1Zm-.65 2.6a1.4 1.4 0 1 0 0 2.8 1.4 1.4 0 0 0 0-2.8ZM11.5 2v20h5.25A5.25 5.25 0 0 0 22 16.75v-9.5A5.25 5.25 0 0 0 16.75 2H11.5Zm4.75 8.25a1.75 1.75 0 1 1 0 3.5 1.75 1.75 0 0 1 0-3.5Z"/></svg></g>
</svg>
